<?xml version="1.0" encoding="UTF-8" standalone="no"?>
<!-- Created with Inkscape (http://www.inkscape.org/) -->

<svg
   xmlns:dc="http://purl.org/dc/elements/1.1/"
   xmlns:cc="http://creativecommons.org/ns#"
   xmlns:rdf="http://www.w3.org/1999/02/22-rdf-syntax-ns#"
   xmlns:svg="http://www.w3.org/2000/svg"
   xmlns="http://www.w3.org/2000/svg"
   xmlns:sodipodi="http://sodipodi.sourceforge.net/DTD/sodipodi-0.dtd"
   xmlns:inkscape="http://www.inkscape.org/namespaces/inkscape"
   width="25mm"
   height="25mm"
   viewBox="0 0 500 500"
   version="1.1"
   id="svg5907"
   inkscape:version="0.92.1 r15371"
   sodipodi:docname="lotus_flower.svg">
  <defs
     id="defs5901" />
  <sodipodi:namedview
     id="base"
     pagecolor="#ffffff"
     bordercolor="#666666"
     borderopacity="1.0"
     inkscape:pageopacity="0.0"
     inkscape:pageshadow="2"
     inkscape:zoom="0.24748737"
     inkscape:cx="867.41682"
     inkscape:cy="1090.0334"
     inkscape:document-units="mm"
     inkscape:current-layer="layer1"
     showgrid="false"
     inkscape:window-width="1366"
     inkscape:window-height="715"
     inkscape:window-x="-8"
     inkscape:window-y="-8"
     inkscape:window-maximized="1" />
  <metadata
     id="metadata5904">
    <rdf:RDF>
      <cc:Work
         rdf:about="">
        <dc:format>image/svg+xml</dc:format>
        <dc:type
           rdf:resource="http://purl.org/dc/dcmitype/StillImage" />
        <dc:title></dc:title>
      </cc:Work>
    </rdf:RDF>
  </metadata>
  <g
     inkscape:label="Layer 1"
     inkscape:groupmode="layer"
     id="layer1"
     transform="translate(0,203)">
    <path
       inkscape:connector-curvature="0"
       id="path5597"
       d="m 176.00999,185.39036 c -13.19865,-1.98641 -27.70824,-8.50383 -34.86546,-15.66116 -4.55632,-4.55631 -13.26097,-19.81986 -12.24275,-21.46748 0.26681,-0.43184 6.57758,-1.0467 14.02316,-1.36497 7.54824,-0.32286 18.07818,-1.50167 23.80108,-2.66445 12.0261,-2.4436 37.28202,-10.71059 51.90888,-16.99134 5.65683,-2.42904 10.44161,-4.25963 10.63327,-4.06813 0.93112,0.93005 -1.97238,3.04735 -14.00106,10.20909 -23.67949,14.09832 -34.12296,18.64538 -46.36205,20.18582 -2.82984,0.35678 -5.14506,1.02541 -5.14506,1.48851 0,2.94673 16.72308,10.83277 25.75135,12.14356 14.59822,2.11935 33.90802,-9.16372 47.91128,-27.9951 2.77786,-3.73567 5.5314,-6.62143 6.11896,-6.41276 1.86374,0.6619 0.77186,10.35191 -1.80021,15.9688 -5.07545,11.08639 -17.08418,23.87273 -27.76983,29.56807 -10.3824,5.53391 -27.25611,8.67266 -37.96156,7.06154 z m 119.54129,-0.39688 c -8.21384,-1.87454 -12.4891,-3.81416 -19.61615,-8.89994 -14.125,-10.07954 -24.14516,-27.20478 -22.36968,-38.23159 1.4501,-9.00555 1.99088,-9.25694 5.82757,-2.7101 1.4955,2.55201 6.51789,8.4861 11.16088,13.18698 6.44834,6.52854 10.05183,9.30922 15.25904,11.77502 6.58406,3.11766 7.23578,3.22773 19.06699,3.21765 8.71796,-0.0103 13.80416,-0.4889 17.64017,-1.67193 5.57417,-1.71814 9.71603,-4.1183 8.75863,-5.07559 -0.30177,-0.30177 -4.49036,-1.67903 -9.30845,-3.06097 -4.81814,-1.38189 -13.17017,-4.65466 -18.56025,-7.27279 -16.60057,-8.06336 -42.67883,-28.07084 -32.58505,-24.99948 1.21275,0.36912 11.13046,4.34708 22.03918,8.83995 33.2288,13.68591 43.52929,16.29037 64.20082,16.23315 11.66774,-0.036 13.47509,0.17171 13.47509,1.51766 0,2.17904 -11.78274,17.76662 -17.40503,23.02575 -5.72639,5.3564 -12.15972,9.20008 -20.6979,12.36644 -8.11035,3.00765 -27.38751,3.92737 -36.88586,1.75979 z m 113.82651,-35.84994 c -8.49932,-1.07584 -16.14663,-2.89409 -16.83084,-4.0014 -0.6821,-1.10278 2.06121,-1.63981 12.29308,-2.40406 16.52335,-1.23418 37.13103,-6.17247 47.37488,-11.35274 7.64067,-3.86383 19.05891,-11.68234 22.69515,-15.54015 l 2.9399,-3.11922 -2.98143,-2.62208 c -1.63981,-1.44209 -4.94734,-4.23002 -7.34996,-6.19556 -8.50307,-6.955647 -2.72136,-5.918153 15.96643,2.86525 6.33324,2.97656 11.515,5.71966 11.515,6.09562 0,1.30194 -12.44885,15.26649 -18.21673,20.43479 -6.67644,5.98251 -18.63967,12.13437 -27.84335,14.31783 -7.70617,1.82838 -30.2817,2.69669 -39.56213,1.52172 z M 60.86,147.98719 C 46.96341,146.01831 32.56039,139.2607 18.50505,128.11492 13.31136,123.99631 5,114.65038 5,112.92873 c 0,-2.41362 29.8369,-12.75216 31.62945,-10.95962 0.54077,0.54186 -1.66058,2.94515 -5.56651,6.07531 -3.55466,2.84834 -6.46294,5.50935 -6.46294,5.91307 0,3.02225 18.90469,14.90025 31.7698,19.96125 7.80724,3.07125 23.56146,6.56314 39.70957,8.80125 15.98998,2.21636 16.04844,2.87625 0.4375,4.95376 -11.80181,1.57061 -25.90841,1.69471 -35.65697,0.31308 z m 291.18824,-10.62371 c -10.8132,-1.52208 -9.87744,-2.43449 4.42312,-4.3134 14.67554,-1.92817 21.75236,-3.87813 32.5431,-8.96663 15.6806,-7.39453 24.72789,-14.98534 34.97132,-29.341784 6.17401,-8.652979 16.14626,-26.348107 15.31677,-27.178627 -0.39482,-0.394824 -4.07466,1.039962 -8.1777,3.190264 -19.72888,10.338129 -42.74874,15.490434 -78.71479,17.61822 -29.58289,1.750131 -42.6907,4.899217 -63.19494,15.182597 -6.05095,3.03465 -11.19071,5.32859 -11.42159,5.09771 -0.75165,-0.75279 7.01205,-9.842906 13.88287,-16.254485 3.69222,-3.445256 9.60677,-8.131483 13.14338,-10.413702 8.8451,-5.707784 28.98372,-15.676331 35.41936,-17.532571 9.97507,-2.877181 27.83605,-5.348484 49.90093,-6.904493 25.12153,-1.771672 36.28288,-3.428495 45.40687,-6.74024 8.46965,-3.074284 19.58879,-10.107712 26.54295,-16.789397 3.10549,-2.983958 6.04775,-5.425238 6.5382,-5.425238 2.34607,0 -0.98948,23.394944 -5.08835,35.691979 -11.79466,35.381774 -41.31072,63.743177 -74.50621,71.591597 -7.72771,1.82699 -28.60863,2.66717 -36.98529,1.4882 z M 116.57225,135.90592 C 80.19612,128.99752 50.20406,101.5693 40.72071,66.538655 38.2765,57.509873 36.38906,37.383284 37.67291,34.037712 c 0.50381,-1.312792 1.97139,-0.445206 7.73938,4.572098 14.39192,12.520408 21.17354,14.858818 49.13277,16.941723 22.64488,1.687103 29.92713,2.559213 49.53911,5.933266 26.38142,4.538579 34.55305,7.411801 46.84818,16.472405 11.63185,8.571959 34.34686,31.884696 31.87118,32.709926 -0.56653,0.18867 -3.58642,-1.29136 -6.71016,-3.28954 C 209.54509,103.1886 194.89201,96.150182 187.82059,93.796812 176.16674,89.918484 163.59832,88.14162 128.49703,85.410185 115.28219,84.381431 101.82391,82.840998 98.59,81.986008 89.93672,79.698494 76.75724,74.226062 67.88556,69.236982 60.60409,65.14222 57.92,64.103596 57.92,65.38076 c 0,3.006527 17.47988,29.333145 24.77801,37.31857 16.15079,17.67138 38.17742,27.52811 65.46545,29.29495 5.07457,0.32851 10.32897,0.85376 11.67647,1.16787 2.20865,0.51409 2.01556,0.70904 -1.95994,1.97093 -6.55475,2.08162 -31.91785,2.55618 -41.30774,0.77294 z M 219.33437,92.209649 c -13.79294,-14.350585 -30.94565,-41.967734 -34.6769,-55.832242 -1.25284,-4.655485 -1.70293,-10.180046 -1.71224,-21.015716 -0.0103,-13.7588105 0.1604,-15.13792046 2.69175,-21.5399375 4.24122,-10.7263725 16.35303,-28.0829685 27.06223,-38.7808585 9.71562,-9.70533 37.73037,-32.28919 40.05397,-32.28919 4.14627,0 35.5705,25.28923 44.1714,35.54767 11.12115,13.26466 19.13819,27.93995 22.18245,40.6052815 2.69226,11.2017055 1.68885,27.6433175 -2.35393,38.5678225 -3.41009,9.214884 -12.22928,24.659667 -21.17648,37.086253 -6.564,9.116693 -15.86572,19.693002 -17.31978,19.693002 -0.53847,0 0.39688,-2.315326 2.07673,-5.145056 14.10819,-23.757997 18.94032,-39.046393 18.97219,-60.02499 0.0206,-10.110437 -0.3465,-12.868811 -2.57978,-19.6648305 -2.80253,-8.52908196 -9.20321,-19.9057845 -16.62735,-29.5539525 -7.07702,-9.19714 -25.19253,-27.71117 -27.11467,-27.71117 -1.95428,0 -20.06547,16.04442 -29.33824,25.99045 -11.29954,12.1197225 -19.00226,26.4611555 -21.71673,40.434036 -1.67878,8.641155 -0.67537,27.136111 1.9789,36.475509 2.95846,10.409897 9.57341,23.557089 17.18885,34.162753 3.59671,5.009182 6.26121,9.385976 5.92082,9.726358 -0.33981,0.339816 -3.79782,-2.688714 -7.68319,-6.731192 z m 92.40559,-26.34965 c 0,-0.647296 4.52027,-7.314175 10.04499,-14.815069 12.11021,-16.441663 17.45505,-25.926704 21.21266,-37.643275 5.52091,-17.2145535 6.16384,-29.243744 2.18151,-40.80943 -4.19449,-12.18259 -15.93841,-32.26014 -22.48906,-38.44778 -3.68842,-3.48407 -4.71491,-3.27319 -16.20317,3.3282 -4.77573,2.74423 -8.92668,4.74596 -9.22419,4.44846 -0.88851,-0.88965 1.25202,-4.74443 7.58032,-13.6489 6.416,-9.0276 16.30054,-20.22046 17.85702,-20.22046 1.52331,0 11.71837,8.17656 16.02725,12.854 4.64335,5.04059 13.9829,22.82003 17.51545,33.34313 3.16034,9.41456 5.47017,23.643 5.46637,33.672824 -0.0103,20.1419595 -9.97698,42.390628 -26.96101,60.167446 -9.69377,10.146475 -23.00814,20.430058 -23.00814,17.770854 z M 178.3645,59.628661 C 159.23628,43.273006 146.81211,23.898845 142.51793,3.7293805 c -1.9659,-9.233598 -1.23912,-26.7597955 1.5337,-36.9824555 4.75398,-17.52779 13.78395,-35.34456 25.28424,-49.88844 9.20095,-11.63581 9.12702,-11.62604 17.7161,-2.34463 6.57244,7.10237 18.02096,22.58226 19.44428,26.2912 1.00074,2.60671 -1.62011,1.79234 -10.79809,-3.35565 -4.80251,-2.69375 -9.28588,-4.89778 -9.96315,-4.89778 -2.18418,0 -14.53529,14.35377 -19.42654,22.57666 -2.61232,4.3916 -6.30203,12.24362 -8.1996,17.44903 -2.99229,8.20891 -3.51127,10.962655 -3.91241,20.7596995 -0.34239,8.35866 -0.056,12.867113 1.0871,17.3416375 3.05876,11.939276 6.01069,16.872268 31.87154,53.261153 2.87101,4.039754 -1.5719,1.860765 -8.79004,-4.311144 z M 142.69,50.730253 C 118.72559,41.917442 103.88225,32.015521 92.8451,17.478783 78.24858,-1.7460335 71.01424,-29.065475 75.12077,-49.455225 c 0.61142,-3.03603 2.34854,-3.3283 9.88599,-1.6634 12.79467,2.82623 38.33992,16.9409 41.56432,22.96593 1.35639,2.53412 0.40716,2.41542 -8.2799,-1.03549 -8.60702,-3.41904 -21.71864,-6.90023 -25.98942,-6.90023 -2.99419,0 -3.02154,0.0463 -3.00473,5.14506 0.0206,6.11222 1.94266,15.662092 4.76812,23.6849445 6.49522,18.4439075 21.42514,35.0666865 45.40194,50.5500775 18.45532,11.917787 19.03388,13.253045 3.22291,7.438586 z m 207.26999,1.970267 c 0,-0.215406 4.07929,-2.916098 9.06503,-6.002309 23.79141,-14.726542 35.67167,-24.652265 43.28901,-36.167105 7.43139,-11.23388746 12.27287,-26.171619 12.30901,-37.978361 0.0206,-4.81768 -0.26373,-5.65776 -2.05643,-6.22707 -3.15155,-1.00074 -14.12777,0.45754 -23.1764,3.07953 -9.85236,2.8542 -9.80085,2.8526 -7.48707,0.23237 3.66257,-4.14782 42.65421,-21.81493 46.80989,-21.20953 2.74197,0.39945 3.35709,3.24522 3.45225,15.97373 0.10076,13.85115 -1.71255,22.332674 -7.13538,33.3214405 -8.55792,17.3413295 -24.67683,32.2396295 -47.55043,43.9494655 -12.82846,6.56735 -27.51948,12.454553 -27.51948,11.027942 z M 94.1799,46.1981 C 77.18178,44.867984 67.40077,41.144912 60.32318,33.310731 53.98898,26.299563 52.52278,21.786277 52.58154,9.4817365 52.63754,-3.4244995 53.64063,-10.6083 55.37158,-10.6083 c 0.68771,0 4.054,3.6382455 7.4793,8.0850075 19.27443,25.0212825 30.80613,37.0995175 41.61923,43.5918105 7.38687,4.435246 7.06566,4.123705 5.36144,5.201504 -1.57488,0.996212 -2.03113,0.99395 -15.65165,-0.06735 z m 295.21638,-0.210779 c 0.22003,-0.674235 4.33571,-3.36228 9.14656,-5.974445 17.86565,-9.700446 28.63906,-19.553682 44.07418,-40.30962546 4.61801,-6.21005504 8.75056,-11.29095154 9.18358,-11.29095154 2.81492,0 1.38846,32.527985 -1.7362,39.591847 -3.62725,8.200062 -12.48561,14.657602 -24.34386,17.746332 -7.36996,1.919628 -36.93614,2.112414 -36.32426,0.236483 z"
       style="fill:#cd7f32;stroke-width:0.19062644" />
  </g>
</svg>
